<?xml version="1.0" standalone="no"?><svg xmlns="http://www.w3.org/2000/svg" viewBox="0 0 1440 320"><path fill="#e6b7a3" fill-opacity="1" d="M0,256L20,250.7C40,245,80,235,120,202.7C160,171,200,117,240,128C280,139,320,213,360,224C400,235,440,181,480,170.7C520,160,560,192,600,224C640,256,680,288,720,256C760,224,800,128,840,96C880,64,920,96,960,122.7C1000,149,1040,171,1080,197.3C1120,224,1160,256,1200,277.3C1240,299,1280,309,1320,309.3C1360,309,1400,299,1420,293.3L1440,288L1440,0L1420,0C1400,0,1360,0,1320,0C1280,0,1240,0,1200,0C1160,0,1120,0,1080,0C1040,0,1000,0,960,0C920,0,880,0,840,0C800,0,760,0,720,0C680,0,640,0,600,0C560,0,520,0,480,0C440,0,400,0,360,0C320,0,280,0,240,0C200,0,160,0,120,0C80,0,40,0,20,0L0,0Z"></path></svg>